<?xml version="1.0" encoding="UTF-8"?>
<svg id="Layer_1" data-name="Layer 1" xmlns="http://www.w3.org/2000/svg" viewBox="0 0 851.43 796.95">
  <defs>
    <style>
      .cls-1 {
        fill: #c2cbe1;
      }

      .cls-2 {
        fill: #fff;
      }

      .cls-3 {
        fill: #6773a0;
      }
    </style>
  </defs>
  <path class="cls-2" d="M570.48,574.67c.44.04,2.22,1.78,4,2,.19,1.96-.1,4.03-.01,5.99-3.99-1.17-7.84-1.58-11.99-1.99-6.68-.67-13.3-1.74-20-2v-2c9.72-1.39,17.76-2.88,28-2Z"/>
  <path class="cls-3" d="M666.48,770.67l.08-407.08c-9.12-152.43-140.06-262.9-292.88-238.71-80.35,12.72-159.42,91.72-192.62,161.29-24.66,51.67-22.66,100.95-22.5,173.42.15,69.27-.07,138.56-.34,207.83l-87.73,39.25c-1.41-9.18,1.79-17.94,2.08-26.89,2.71-83.67-1.42-168.62-2.18-252.01-1.16-128.73,41.98-246.25,150.63-321.54C390.11-10.96,614.52,12.62,741.22,173.94c23.44,29.84,48.04,68.42,55.67,101.76.66,2.88,11.61,24,11.68,28.07.03,1.69-2.24,4.11-2.19,5.78.03,1.29,4.16.95,4.19,2.23.04,1.65-2.18,4.01-2.19,5.76,0,1.24,3.26.94,3.72,1.54,1.19,1.54,6.08,30.23,6.46,36.5l-.09,369.08c-2.75.07-5.76-.41-8.41.54-15.86,5.66-108.42,45.47-114.58,45.47h-29Z"/>
  <path class="cls-3" d="M398.22,180.42c-.89,1.39-25.96,6.93-31.71,9.28-53.79,22.02-107.01,89.69-119.44,146.56-11.79,53.97-6.43,124.57,19.02,173.79,22.76,44.03,61.65,71.98,101.9,97.99,2.14,1.39,5.3,1.81,1.46,4.65-80.73-31.54-135.63-109.07-142.71-195.29-7.47-90.9,54.61-213.99,144.64-242.84,4.82-1.54,23.64-7.82,26.2-4,1.17,1.75,1.68,8.24.64,9.86Z"/>
  <path class="cls-3" d="M490.48,620.67c-41.42,9.94-81,15.38-123.99,15.98-.47-2.82,3.55-2.91,5.55-3.4,28.75-7,61.21-14.16,90.44-10.59,2.66-10.62-6.6-8.33-14.71-12.28-51.84-25.26-119.16-70.21-144.25-123.75-2.98-6.36-18.02-45.99-18.93-51.07-1.98-11.1-2.18-83.47.37-93.4,1.98-7.73,18.05-43.31,22.69-51.31,9.3-16.04,43.33-53.56,58.89-63.11,5.09-3.12,26.76-11.75,15.46-.46-5.52,5.51-16.61,10.51-23.55,16.38-19.63,16.59-51.28,53.21-58.08,77.92-1.82,6.63-.88,12.79-2.3,17.7-1.76,6.06-7.79,5.42-7.76,18.43.13,57.28,4.61,109.1,40.23,155.93,21.85,28.72,82.01,78.69,117.41,84.58,8.06,1.34,13.19-1.58,19.07-1.09,7.28.6,20.87,7.09,29.46,7.57-1.73,9.93-16.64,9.09-23.99,12.03-.48,3.59,4.35,1.83,6.47,1.48,4.84-.78,10.35-2.46,15.51-3.51-2.41,1.66-4.66,2.56-4,6Z"/>
  <path class="cls-1" d="M558.48,596.67c-.78.37-2.29,2.37-6,4-1.94-4.23-6.17-.64-8.73.26-16.93,5.98-31.63,10.15-49.27,13.74,8.58-5.91,42.41-16.45,53.91-19.12,3.06-.71,8.16-2.55,10.09,1.12Z"/>
  <path class="cls-3" d="M504.48,572.67c-29.41-9.29-54.09-27.93-72.83-52.17-19.17-24.8-38.07-71.12-46.62-101.38-15.72-55.61,43.88-131.12,92.06-154.83,4.36-2.15,10.6-1.88,13.86-3.64,2.25-1.21,2.25-4.78,4.79-5.68,4.14-1.46,18.53.3,13.78,5.76s-39.9,17.84-50.92,25.09c-34.71,22.83-68.9,68.16-66.07,111.63.44,6.7,5.82,13.32,7.3,18.88,6.59,24.73,8.33,56.03,20.99,77.01,12.41,20.58,55.11,60.51,77.58,68.42,1.85.65,8.4,2.86,8.05-1.05-5.25-.91-9.72-4.22-14-7.08-.97-.65-7.82-1.74-3.98-4.93,2.46-2.05,20.61,11.06,25.08,11.9,8.53,1.61,23.31-2.69,32.91-3.91v4c-8.99,1.56-18.16,4.15-27.27,5.75-3.16.56-6.88-.41-9.41.2-2.38.58-1.01,3.69-1.32,4.04-.37.42-3.25.6-4,2Z"/>
  <path class="cls-3" d="M340.48,378.67c2.16-2.7,1.39-5.11,5.99-3.99-2.04,5.62,1.71,12.51,2.01,15.99,2.85,32.73.77,55.32,13.04,87.96,6.87,18.27,38.61,53.35,54.3,65.7,23.54,18.52,69.9,37.6,99.69,40.31,3.13.29,20.19.73,20.98.04.52-.46-.46-4.5-.01-6,2.12-7.08,5.57-1.94,6-2v6c-.31.21-.01,3.12-1.08,3.93-7.11,5.39-20.32,3.83-28.91,4.08-1.24,7.42,11.12,2.54,13.99,7.99-2.76.73-5.21,1.32-8,2-8.55-6.38-35.49-4.96-42-9-2-1.24-2.36-2.75-1.99-4.99,2.02-1.82,15.94,3.96,13.98-4-6.46.48-11.68,3.36-18.5,1.52-6.66-1.79-35-18.71-42.53-23.49-55.33-35.1-98.7-94.32-92.93-163.01.67-7.97,1.33-13.23,5.97-19.03Z"/>
  <path class="cls-3" d="M546.48,516.67c-3.37-.11-6.33.13-9.54-1.45-4.42-2.18-10.76-16.75-10.47,1.46-1.56,0-3.17.2-4.7-.3-3.66-1.2-23.83-20.53-27.25-24.75-16.78-20.73-27.62-56.82-23.17-83.05,2.39-14.09,12.36-29.71,13.14-43.9,4.69-3.03,3.9,8.02,7.97,4,1.06-1.05,5.47-20.78,11.92-27.14,4.1.08,12.93-11.81,16.09-8.85,1.29,1.2-6.59,11.17-7.89,12.55-1.89,2-5.1,1.42-6.96,3.5-8.43,9.42-14.56,34.93-23.13,47.94-4.46,6.77-1.6,8.4,0,14,3.72,13.02,11.32,29.46,17.07,42.02.62,1.36,1.88,7.67,4.92,3.97,1.43-1.74-9.96-29.81-10.1-35.06l4.08-18.92.49,24.52,11.51,31.46c-1.03-15.09-2.6-29.8-1.98-45.01.1-2.43-1.51-7.44,1.98-6.97,2.13,16.12.8,37.17,4.44,52.57,1.47,6.25,8.66,8.3,7.57,15.41-6.9-.49-5.87-8.49-12.54-12.44-12.6-7.48,2.01,11,5.56,14.44,6.46,6.25,39.48,25.01,38.94,31.02-.34,3.72-7.12-1.57-7.95,8.99,3.37.11,6.56-2.07,10.07-1.15.91.24,12.67,7.21,13.89,8.2,2.95,2.4,1.87,1.66.09,3.98-5.35,6.98-12.58,3.59-18.67,5.01-1.53.36-1.24,3.58-2.73,3.92-8.73,2-22.18.34-31.62,4.06,1.05-6.86,11.36-.6,4.98-10.02v-2c11.36,6.87,17.75,1.21,29.99,1.99.43-5.17.32-3.34-3-3.93-6.63-1.19-25.5-.78-19.97-10.08l16.97,6.01c.14-1.97-.15-4.01.01-5.99ZM536.48,502.67c0,1.02-4.47,6.51,1.19,7.92,1.22.3,8.46-1.59,8.8-1.95,4.43-4.63-8.99-5.75-9.99-5.97-.06-9.38-1.75-4.45-6.68-8.24-31.98-24.6-32.33-35.76-46.82-71.35-1.22-3,1.2-5.43-4.49-4.39,5.28,24.45,12.23,45.07,29.23,63.75,8.46,9.3,16.8,17.58,28.76,20.24ZM497.3,477.94c-4.89-6.56-8.26-13.96-11.79-21.31l-11.01-31.96c.22,11.64,2.73,25.08,7.01,35.96,3.62,9.19,10.37,14.89,13,24.02,2.36.56,5.07-1.02,5.95-3.03,1.56-3.52-2.43-2.72-3.16-3.69Z"/>
  <path class="cls-3" d="M514.48,656.67l4,4c-110.15,38.43-198.72,39.04-309.12,57.88-2.63.45-17.98,2-18.97,1.28-6.78-13.85,2.67-7.42,10.71-9.19,1.67-.37,1.63-3.41,2.75-3.97,9.67-4.84,25.12-2.87,35.52-4.11,73.15-8.71,148.15-11.5,220.43-29.57,13.65-3.41,43.7-10.74,54.67-16.33Z"/>
  <path class="cls-3" d="M514.48,630.67v4c-26.28,10.53-45.12,20.24-75.03,23.97-57.74,7.2-133.93,11.7-192.06,8.13-32.91-2.02-12.07-8.7,6.11-10.07,56.57-4.26,110.92-.72,167.96-6.04,31.28-2.92,63.56-9.24,93.02-19.98Z"/>
  <path class="cls-3" d="M440.18,380.29c-.41.7-3.95,1.19-5.47,3.54-9.72,15.04,3.37,24.23-.28,39.46-.39,1.62-5.99.53-3.83,12.26,1.29,7.02,8.64,12.6,9.56,18.61.69,4.5-1.98,7.67-.86,12.5,5.19,22.33,48.36,58.33,67.02,71.16,3.71,2.55,6.67,7.63,10.7,9.36,14.07,6.04,36.23-14.34,47.46-.54-15.35-2.79-31.42,10.13-46.49,7.69-7.22-1.17-30.27-16.29-36.45-21.73-10.82-9.54-45.23-49.46-48.23-61.95-2.13-8.88-3.16-12.92-5.81-22-20.08-68.79,32.67-146.73,99.39-166.62,8.6-2.56,11.27,3.38,1.21,7.25-33.33,12.83-83.1,41.4-88.77,81.27-.5,3.54,1.92,7.91.86,9.73Z"/>
  <path class="cls-3" d="M542.48,682.67v2l-1.25,4.15c-48.19,24.79-98.09,38.82-150.73,50.87-7.65,1.75-19,1.67-24.63,3.37-2.77.83-4.29,4.63-6.83,5.35-3.7,1.05-7.68-1.93-12.63-.99-5.58,1.06-12.37,7.54-17.3,8.56-4.27.88-10.41-1.26-17.12,1.23-7.49,2.78-7.55,5.92-19.5,6.51-1.71.09-5.58,2.83-4.03-2.02.34-1.07,17.69-8.71,20.38-9.65,74.01-25.74,161.81-37.94,233.63-69.37Z"/>
  <path class="cls-3" d="M308.46,616.71c.32.37.75,3.87-1.01,3.99-5.48.37-19.51-9.66-24.76-13.24-63.49-43.28-98.05-114.84-102.2-190.77,2.83-.47,2.9,3.54,3.4,5.55,14.43,57.98,24.98,99.2,66.53,145.49,16.45,18.32,35.79,30.45,53.1,47,1.54,1.48,4.72,1.72,4.94,1.98Z"/>
  <path class="cls-3" d="M376.48,292.67c1.04-4.58,5.06-9.41,8.06-12.94,14.83-17.41,54.01-44.09,75.87-52.13,10.9-4.01,40.92-8.76,52.57-8.38,2.7.09,9.14.66,7.48,5.43-19.76-3.51-30.92,3.46-47.57,9.43-35.88,12.85-57.27,30.52-84.42,56.58-.49-4.17-10.08.61-12,2Z"/>
  <path class="cls-3" d="M388.48,290.67c-4.66,4.47-23.89,43.93-26.96,52.04-5.9,15.59-8.44,32.04-13.04,47.96-.3-3.48-4.05-10.37-2.01-15.99-4.6-1.12-3.83,1.29-5.99,3.99-1.43-19.74,20.94-75.06,36-86,1.92-1.39,11.51-6.17,12-2Z"/>
  <path class="cls-3" d="M560.48,718.67l2,2c-19.6,14.17-36.25,24.84-58.65,34.35-28.75,12.21-60.99,22.24-91.34,29.64-.66-4.31,1.67-4.93,5.09-5.89,46.61-13.18,102.62-32.38,142.9-60.1Z"/>
  <path class="cls-3" d="M460.48,446.67c2.54,7.48,13.4,18.14,9.1,26.53-.45.88-1.11,1.79-.91,2.76.29,1.4,2.11,1.83,3.52,1.65s2.95-.65,4.21.02c1.35.72,1.77,2.41,2.16,3.89,2.74,10.39,10.96,17.97,18.6,25,7.64,7.03,16.16,12.99,24.72,18.82,1.01.69.43,3.23.6,3.34,0,3.48-3.5,1.84-6.07,1.12-3.34-.94-6.51-2.44-9.45-4.26-8.08-4.99-15.33-12.02-21.6-19.1-15.05-17-24.54-37.88-30.74-59.55.78-.1,5.61-.91,5.86-.21Z"/>
  <path class="cls-3" d="M514.48,656.67c.74-.38,1.92-4.79,5.4-5.71,4.93-1.3,8.48,2.06,13.98.26,37.44-12.25,60.63-41.53,86.22-67.96,1.96-2.03,1.96-5.66,6.39-4.59,5.57,5.97-41.83,48.28-48.17,52.81-20.11,14.37-36.92,21.19-59.82,29.18l-4-4Z"/>
  <path class="cls-3" d="M560.48,718.67c34.24-23.56,59.1-55.05,77.1-91.99,1.4-2.88-.43-5.01,4.89-4-7.9,30.48-31.98,59.23-55.04,79.94-7.8,7.01-16.59,12.01-24.95,18.05l-2-2Z"/>
  <path class="cls-3" d="M510.47,314.68c2.32,13.78-12.03,17.85-19.94,27.04-6.11,7.09-11.43,15.97-18.06,23.94-4.28,5.15-9.45,20.19-10.01,1.02l8.03-.02c-4.16-16.06.88-10.06,5.42-14.56.5-.5,7.47-8.9,8.63-10.37,7.6-9.64,10.65-25.14,25.93-27.05Z"/>
  <path class="cls-3" d="M626.48,612.67c-14.41,23.5-48.8,56.78-73.73,69.28-3.51,1.76-5.82,3.7-10.27,2.72v-2c39.47-17.27,54.5-50.7,84-70Z"/>
  <path class="cls-3" d="M552.48,600.67c-22.83,10.07-37.88,14.21-62,20-.66-3.44,1.59-4.34,4-6,17.64-3.59,32.34-7.76,49.27-13.74,2.56-.9,6.79-4.5,8.73-.26Z"/>
  <path class="cls-3" d="M572.48,586.67c2.93.98,7.26-2.51,6,4-5.1,1.82-14.03,3.17-20,6-1.93-3.67-7.04-1.83-10.09-1.12-11.5,2.67-45.33,13.21-53.91,19.12-5.16,1.05-10.68,2.73-15.51,3.51-2.12.34-6.95,2.11-6.47-1.48,7.35-2.93,22.25-2.1,23.99-12.03,7.69.43,14.73-2.23,22-4,2.79-.68,5.24-1.27,8-2,15.11-4,29.79-10.08,46-12Z"/>
  <path class="cls-3" d="M514.48,630.67c26.63-9.71,51.54-27.6,75.85-37.17,2.41-.95,5.49-1.97,4.17,2.15-.9,2.8-44.84,25.7-51.3,28.74-9.61,4.53-19.59,6.62-28.72,10.28v-4Z"/>
  <path class="cls-3" d="M570.48,572.67v2c-10.24-.88-18.28.61-28,2-.43.06-3.88-5.08-6,2-7.44-1.24-17.68-.87-24.61-2.45-3.57-.82-5.52-2.96-7.39-3.55.75-1.4,3.63-1.58,4-2,23.39,3.67,37.59-7.27,62,2Z"/>
  <path class="cls-3" d="M460.48,446.67h-6c-.11-.3-3.23-.79-3.97-4.96-2.81-15.76,1.64-43.45,7.41-58.61.96-2.54,1.17-5.88,4.54-6.44,1.69,13.82-7.44,25.4-8.07,38.95-.43,9.15,3.09,22.2,6.09,31.05Z"/>
  <path class="cls-3" d="M558.48,322.69l-47.99,45.97c-.89-4.05.85-5.34,2.9-8.08,9.86-13.22,28.79-34.97,45.09-37.89Z"/>
  <path class="cls-1" d="M570.48,572.67c3.38,1.28,3.37-2.55,4,4-1.78-.22-3.56-1.96-4-2v-2Z"/>
  <path class="cls-3" d="M574.48,576.67c3.68.45,5.22,2.29,9.98,1.16,4.46-1.06,22.55-14.55,24.01-13.15,4.39,4.25-24.33,17.57-25.93,19.07-1.83,1.72-2.03,6.19-4.06,6.92,1.26-6.51-3.07-3.02-6-4-2.55-.85-7.94-3.73-10-4v-2c4.14.41,7.99.83,11.99,1.99-.08-1.97.2-4.03.01-5.99Z"/>
  <path class="cls-3" d="M546.48,556.67c6.5-.82,19.68-6.2,22.02,2.98-8.85-1.56-13.67-.43-22.02,1.02v-4Z"/>
  <path class="cls-1" d="M626.48,612.67c2.72-4.44,4.39-14.08,11.99-13.99-1.05,7.33-7.08,10.78-11.99,13.99Z"/>
  <path class="cls-1" d="M284.47,762.68c-.3,1.95.51,7.43,0,7.98-2.81,2.99-21.17-6.69,0-7.98Z"/>
  <path class="cls-3" d="M632.47,568.68c1.03,1.06-2.58,11.46-5.98,7.98-1.03-1.06,2.58-11.46,5.98-7.98Z"/>
  <path class="cls-3" d="M482.48,410.67c-1.6-5.6-4.46-7.23,0-14v14Z"/>
  <rect class="cls-3" x="595.96" y="589" width="7.04" height="1.33" transform="translate(-241.37 596.6) rotate(-45)"/>
  <path class="cls-1" d="M639.48,594.67c1.3.67,1.3,1.33,0,2v-2Z"/>
  <path class="cls-1" d="M373.48,612.67c1.3.67,1.3,1.33,0,2v-2Z"/>
  <path class="cls-1" d="M387.48,218.67c1.3.67,1.3,1.33,0,2v-2Z"/>
  <path class="cls-2" d="M562.48,582.67c2.06.27,7.45,3.15,10,4-16.21,1.92-30.89,8-46,12-2.87-5.45-15.23-.57-13.99-7.99,8.59-.25,21.8,1.31,28.91-4.08,1.07-.81.77-3.72,1.08-3.93.82-.57,17.23-.36,20,0Z"/>
  <path class="cls-3" d="M562.48,580.67v2c-2.77-.36-19.18-.57-20,0v-4c6.7.26,13.32,1.33,20,2Z"/>
  <path class="cls-3" d="M536.48,502.67c-11.96-2.66-20.3-10.94-28.76-20.24-17-18.68-23.95-39.3-29.23-63.75,5.69-1.04,3.27,1.4,4.49,4.39,14.49,35.59,14.84,46.76,46.82,71.35,4.93,3.79,6.61-1.14,6.68,8.24,1,.22,14.42,1.34,9.99,5.97-.34.35-7.58,2.25-8.8,1.95-5.67-1.41-1.19-6.89-1.19-7.92Z"/>
  <path class="cls-3" d="M497.3,477.94c.73.97,4.72.18,3.16,3.69-.89,2.01-3.59,3.59-5.95,3.03-2.63-9.13-9.38-14.83-13-24.02-4.28-10.88-6.79-24.33-7.01-35.96l11.01,31.96c3.52,7.34,6.9,14.74,11.79,21.31Z"/>
</svg>